<svg xmlns="http://www.w3.org/2000/svg" data-name="Layer 1" viewBox="0 0 100 125" x="0px" y="0px"><title>8</title><g data-name="Group"><path data-name="Path" d="M38.1,11.4a4,4,0,0,0,0,8h17a4,4,0,0,0,0-8Z"/><path data-name="Compound Path" d="M72.9,17a4,4,0,1,0-5.7,5.7l3.2,3.2-4,4a32.7,32.7,0,1,0,5.7,5.6l3.9-3.9,3.2,3.2A4,4,0,0,0,84.9,29ZM64.1,73.4h0a24.7,24.7,0,1,1,7.2-17.5A24.6,24.6,0,0,1,64.1,73.4Z"/><path data-name="Compound Path" d="M45.2,46l-4.8-8.5a4,4,0,1,0-7,3.9l4.9,8.8A10,10,0,0,0,53.7,63h0a10,10,0,0,0-8.5-17Zm2.8,11.4a2,2,0,0,1-3-2.8h.3L46,54h.6a2,2,0,0,1,1.4,3.5Z"/></g><text x="0" y="115" fill="#000000" font-size="5px" font-weight="bold" font-family="'Helvetica Neue', Helvetica, Arial-Unicode, Arial, Sans-serif">Created by juli</text><text x="0" y="120" fill="#000000" font-size="5px" font-weight="bold" font-family="'Helvetica Neue', Helvetica, Arial-Unicode, Arial, Sans-serif">from the Noun Project</text></svg>